<svg width="168" height="168" viewBox="0 0 168 168" fill="none" xmlns="http://www.w3.org/2000/svg">
<path d="M160.125 110.25L97.125 63L109.725 53.55C110.699 52.813 111.49 51.8611 112.037 50.7684C112.583 49.6757 112.87 48.4717 112.875 47.25C112.875 39.5919 109.833 32.2474 104.418 26.8323C99.0026 21.4172 91.6581 18.375 84 18.375C76.3419 18.375 68.9974 21.4172 63.5823 26.8323C58.1672 32.2474 55.125 39.5919 55.125 47.25C55.125 49.3386 55.9547 51.3416 57.4315 52.8185C58.9084 54.2953 60.9114 55.125 63 55.125C65.0886 55.125 67.0916 54.2953 68.5685 52.8185C70.0453 51.3416 70.875 49.3386 70.875 47.25C70.906 44.1017 72.0676 41.0694 74.1481 38.7062C76.2286 36.3431 79.0892 34.8065 82.2082 34.3769C85.3273 33.9472 88.4968 34.6531 91.1387 36.3657C93.7807 38.0783 95.7189 40.6836 96.6 43.7062L79.4062 56.5687L79.1437 56.8312L7.875 110.25C5.67123 111.903 4.04337 114.207 3.22201 116.837C2.40065 119.466 2.42742 122.287 3.29853 124.9C4.16965 127.514 5.84094 129.787 8.07568 131.398C10.3104 133.008 12.9953 133.875 15.75 133.875H152.25C155.005 133.875 157.69 133.008 159.924 131.398C162.159 129.787 163.83 127.514 164.701 124.9C165.573 122.287 165.599 119.466 164.778 116.837C163.957 114.207 162.329 111.903 160.125 110.25ZM23.625 118.125L84 72.8438L144.375 118.125H23.625Z" fill="black"/>
</svg>
