<svg width="52" height="48" viewBox="0 0 52 48" fill="none" xmlns="http://www.w3.org/2000/svg">
<path d="M2.98438 36.6562C2.77604 36.3438 2.69271 35.8438 2.73438 35.1562C2.79688 34.4688 2.93229 33.6979 3.14062 32.8438C3.36979 31.9688 3.65104 31.0625 3.98438 30.125C4.31771 29.1667 4.65104 28.2604 4.98438 27.4062C5.31771 26.5312 5.61979 25.75 5.89062 25.0625C6.18229 24.375 6.39062 23.875 6.51562 23.5625C6.66146 23.25 6.84896 22.8125 7.07812 22.25C7.32812 21.6667 7.58854 21.0417 7.85938 20.375C8.15104 19.6875 8.45312 18.9688 8.76562 18.2188C9.07812 17.4688 9.36979 16.75 9.64062 16.0625C9.93229 15.375 10.1927 14.75 10.4219 14.1875C10.6719 13.625 10.8698 13.1771 11.0156 12.8438C11.474 12.6979 11.776 12.7188 11.9219 12.9062C12.0677 13.0729 12.1094 13.3646 12.0469 13.7812C11.9844 14.1979 11.8385 14.7083 11.6094 15.3125C11.3802 15.8958 11.1094 16.5312 10.7969 17.2188C10.5052 17.8854 10.1927 18.5729 9.85938 19.2812C9.54688 19.9896 9.25521 20.6667 8.98438 21.3125C8.73438 21.9375 8.53646 22.5104 8.39062 23.0312C8.26562 23.5521 8.23438 23.9688 8.29688 24.2812C8.67188 24.3229 9.09896 24.3229 9.57812 24.2812C10.0781 24.2396 10.5781 24.1771 11.0781 24.0938C11.599 24.0104 12.1094 23.9167 12.6094 23.8125C13.1094 23.7083 13.5469 23.625 13.9219 23.5625C15.8177 23.25 17.3281 22.8021 18.4531 22.2188C19.599 21.6354 20.5469 20.8958 21.2969 20C22.0677 19.0833 22.7344 17.9896 23.2969 16.7188C23.8594 15.4479 24.5052 13.9688 25.2344 12.2812C25.4219 11.9271 25.5885 11.7812 25.7344 11.8438C25.8802 11.8854 25.9948 12.0312 26.0781 12.2812C26.1823 12.5104 26.2552 12.7708 26.2969 13.0625C26.3385 13.3542 26.3385 13.5625 26.2969 13.6875C26.276 13.75 26.2135 13.8854 26.1094 14.0938C26.0052 14.3021 25.8906 14.5312 25.7656 14.7812C25.6406 15.0104 25.526 15.2292 25.4219 15.4375C25.3177 15.625 25.2552 15.75 25.2344 15.8125C25.1927 15.8958 25.1406 16.0417 25.0781 16.25C25.0156 16.4375 24.9427 16.6458 24.8594 16.875C24.776 17.1042 24.7031 17.3229 24.6406 17.5312C24.5781 17.7188 24.5365 17.8542 24.5156 17.9375C24.6198 17.9583 24.7552 18.0625 24.9219 18.25C25.1094 18.4167 25.2135 18.5521 25.2344 18.6562C25.2969 19.0104 25.1823 19.4167 24.8906 19.875C24.599 20.3125 24.2344 20.7708 23.7969 21.25C23.3802 21.7292 22.9635 22.1979 22.5469 22.6562C22.151 23.1146 21.8802 23.5417 21.7344 23.9375C20.8802 26.0208 20.1406 28.1042 19.5156 30.1875C18.9115 32.2708 18.4635 34.4271 18.1719 36.6562C18.1094 36.7604 18.0156 36.8646 17.8906 36.9688C17.7656 37.0729 17.6302 37.0833 17.4844 37C17.4427 36.5417 17.474 35.9167 17.5781 35.125C17.7031 34.3125 17.8594 33.4375 18.0469 32.5C18.2344 31.5417 18.4427 30.5729 18.6719 29.5938C18.901 28.6146 19.1094 27.7188 19.2969 26.9062C19.5052 26.0729 19.6719 25.3854 19.7969 24.8438C19.9219 24.3021 19.974 24 19.9531 23.9375C19.5156 23.8542 18.9531 23.8438 18.2656 23.9062C17.5781 23.9479 16.8281 24.0417 16.0156 24.1875C15.2031 24.3125 14.3594 24.4688 13.4844 24.6562C12.6094 24.8438 11.7552 25.0521 10.9219 25.2812C10.1094 25.4896 9.34896 25.6979 8.64062 25.9062C7.93229 26.0938 7.34896 26.2604 6.89062 26.4062C6.53646 27.1979 6.24479 28.0729 6.01562 29.0312C5.78646 29.9688 5.54688 30.9167 5.29688 31.875C5.06771 32.8333 4.80729 33.7604 4.51562 34.6562C4.22396 35.5312 3.83854 36.3125 3.35938 37C3.31771 36.9792 3.24479 36.9271 3.14062 36.8438C3.05729 36.7604 3.00521 36.6979 2.98438 36.6562Z" fill="black"/>
<path d="M21.75 29.6562C20.875 29.3021 20.3229 28.7708 20.0938 28.0625C19.8854 27.3542 19.8958 26.5729 20.125 25.7188C20.3542 24.8438 20.75 23.9479 21.3125 23.0312C21.875 22.0938 22.5 21.2396 23.1875 20.4688C23.875 19.6979 24.5625 19.0521 25.25 18.5312C25.9583 17.9896 26.5625 17.6875 27.0625 17.625C28.3542 17.4583 29.3646 17.5521 30.0938 17.9062C30.8438 18.2396 31.3542 18.7292 31.625 19.375C31.8958 20.0208 31.9688 20.7812 31.8438 21.6562C31.7188 22.5104 31.4375 23.375 31 24.25C30.5833 25.125 30.0312 25.9688 29.3438 26.7812C28.6771 27.5938 27.9271 28.2812 27.0938 28.8438C26.2812 29.3854 25.4167 29.75 24.5 29.9375C23.5833 30.1042 22.6667 30.0104 21.75 29.6562ZM21.4062 27.875C21.5729 28.5417 21.9271 28.9167 22.4688 29C23.0104 29.0625 23.6354 28.9271 24.3438 28.5938C25.0729 28.2396 25.8333 27.7396 26.625 27.0938C27.4167 26.4271 28.1354 25.7083 28.7812 24.9375C29.4479 24.1667 29.9896 23.3958 30.4062 22.625C30.8438 21.8333 31.0521 21.1458 31.0312 20.5625C31.0312 19.9792 30.75 19.5417 30.1875 19.25C29.6458 18.9375 28.7292 18.875 27.4375 19.0625C27.1458 19.3333 26.7708 19.6667 26.3125 20.0625C25.8542 20.4375 25.375 20.8542 24.875 21.3125C24.3958 21.7708 23.9167 22.2708 23.4375 22.8125C22.9583 23.3333 22.5417 23.875 22.1875 24.4375C21.8333 25 21.5729 25.5729 21.4062 26.1562C21.2604 26.7396 21.2604 27.3125 21.4062 27.875Z" fill="black"/>
<path d="M46.8281 38.875C46.1615 37.8125 45.4948 36.8438 44.8281 35.9688C44.1823 35.0938 43.5052 34.25 42.7969 33.4375C42.0885 32.6042 41.3385 31.7708 40.5469 30.9375C39.776 30.1042 38.9323 29.2188 38.0156 28.2812C36.7031 26.9062 35.6094 25.8854 34.7344 25.2188C33.8802 24.5521 33.1615 24.1667 32.5781 24.0625C32.0156 23.9583 31.5469 24.125 31.1719 24.5625C30.7969 24.9792 30.4323 25.6042 30.0781 26.4375C29.724 27.25 29.349 28.2396 28.9531 29.4062C28.5573 30.5729 28.0469 31.8438 27.4219 33.2188C27.2135 33.6562 26.974 34.1667 26.7031 34.75C26.4531 35.3125 26.099 35.75 25.6406 36.0625C25.2865 36.2917 25.1302 36.1875 25.1719 35.75C25.2135 35.2917 25.3802 34.6458 25.6719 33.8125C25.9635 32.9792 26.3281 32.0417 26.7656 31C27.224 29.9375 27.6719 28.9167 28.1094 27.9375C28.5469 26.9583 28.9323 26.1146 29.2656 25.4062C29.599 24.6771 29.8073 24.2292 29.8906 24.0625C30.3906 22.875 30.901 21.7917 31.4219 20.8125C31.9427 19.8125 32.4531 18.8333 32.9531 17.875C33.474 16.9167 33.974 15.9375 34.4531 14.9375C34.9531 13.9375 35.4115 12.8333 35.8281 11.625C36.0156 11.5 36.1823 11.4688 36.3281 11.5312C36.474 11.5729 36.599 11.6562 36.7031 11.7812C36.8073 11.9062 36.8698 12.0625 36.8906 12.25C36.9323 12.4167 36.9323 12.5625 36.8906 12.6875C36.7656 12.9375 36.5677 13.3333 36.2969 13.875C36.0469 14.3958 35.776 14.9479 35.4844 15.5312C35.2135 16.0938 34.9531 16.6458 34.7031 17.1875C34.4531 17.7083 34.2656 18.1042 34.1406 18.375C34.099 18.4792 34.0156 18.6979 33.8906 19.0312C33.7656 19.3438 33.724 19.6042 33.7656 19.8125C34.3698 19.9375 35.1198 19.8854 36.0156 19.6562C36.9323 19.4271 37.9115 19.0938 38.9531 18.6562C40.0156 18.2188 41.1094 17.7188 42.2344 17.1562C43.3802 16.5729 44.4635 16 45.4844 15.4375C46.526 14.875 47.4635 14.3542 48.2969 13.875C49.151 13.375 49.8385 13 50.3594 12.75C50.8594 12.5 51.1198 12.4583 51.1406 12.625C51.1615 12.7917 51.0469 13.0417 50.7969 13.375C50.5677 13.7083 50.2656 14.0625 49.8906 14.4375C49.5365 14.7917 49.224 15.0417 48.9531 15.1875C48.7448 15.3125 48.4323 15.4896 48.0156 15.7188C47.599 15.9271 47.1615 16.1458 46.7031 16.375C46.2448 16.5833 45.8281 16.7812 45.4531 16.9688C45.0781 17.1562 44.8281 17.2708 44.7031 17.3125C44.1406 17.5625 43.4323 17.8438 42.5781 18.1562C41.724 18.4688 40.8281 18.8021 39.8906 19.1562C38.974 19.5104 38.0573 19.8958 37.1406 20.3125C36.2448 20.7083 35.474 21.125 34.8281 21.5625C34.6615 21.6875 34.5156 21.8125 34.3906 21.9375C34.2865 22.0417 34.1927 22.1562 34.1094 22.2812C34.0469 22.4062 34.0573 22.5208 34.1406 22.625C34.4531 22.8125 34.9323 23.1875 35.5781 23.75C36.224 24.3125 36.9531 24.9792 37.7656 25.75C38.5781 26.5208 39.4323 27.375 40.3281 28.3125C41.2448 29.25 42.1302 30.1979 42.9844 31.1562C43.8385 32.1146 44.6198 33.0521 45.3281 33.9688C46.0365 34.8854 46.599 35.7083 47.0156 36.4375C47.4531 37.1875 47.7031 37.8125 47.7656 38.3125C47.8281 38.8125 47.6302 39.1146 47.1719 39.2188C47.1302 39.1979 47.0677 39.1458 46.9844 39.0625C46.9219 38.9792 46.8698 38.9167 46.8281 38.875Z" fill="black"/>
</svg>
